<svg xmlns="http://www.w3.org/2000/svg" width="860" height="940" viewBox="0 0 860 940"><title>show food with high proteins</title><text role="caption" x="430" y="30" height="40" font-family="Verdana" font-size="20px" font-weight="bold" fill="crimson" text-anchor="middle">show food with high proteins</text><g role="table" transform="translate(0, 0)" font-family="Courier" font-size="20px" text-anchor="middle"><rect x="14" y="126" width="832" height="40" fill="papayawhip"/><rect x="14" y="206" width="832" height="40" fill="papayawhip"/><rect x="14" y="286" width="832" height="40" fill="papayawhip"/><rect x="14" y="366" width="832" height="40" fill="papayawhip"/><rect x="14" y="446" width="832" height="40" fill="papayawhip"/><rect x="14" y="526" width="832" height="40" fill="papayawhip"/><rect x="14" y="606" width="832" height="40" fill="papayawhip"/><rect x="14" y="686" width="832" height="40" fill="papayawhip"/><rect x="14" y="766" width="832" height="40" fill="papayawhip"/><rect x="14" y="846" width="832" height="40" fill="papayawhip"/><text role="column"><tspan role="columnheader" x="330" y="70" font-weight="bold" fill="crimson">Food Name</tspan><tspan role="cell" x="330" y="110" font-weight="bold">Amaranth seed, black</tspan><tspan role="cell" x="330" y="150" font-weight="bold">Amaranth seed, pale brown</tspan><tspan role="cell" x="330" y="190" font-weight="bold">Bajra</tspan><tspan role="cell" x="330" y="230" font-weight="bold">Barley</tspan><tspan role="cell" x="330" y="270" font-weight="bold">Jowar</tspan><tspan role="cell" x="330" y="310" font-weight="bold">Maize, dry</tspan><tspan role="cell" x="330" y="350" font-weight="bold">Maize, tender, local</tspan><tspan role="cell" x="330" y="390" font-weight="bold">Maize, tender, sweet</tspan><tspan role="cell" x="330" y="430" font-weight="bold">Quinoa</tspan><tspan role="cell" x="330" y="470" font-weight="bold">Ragi</tspan><tspan role="cell" x="330" y="510" font-weight="bold">Rice flakes</tspan><tspan role="cell" x="330" y="550" font-weight="bold">Rice puffed</tspan><tspan role="cell" x="330" y="590" font-weight="bold">Rice, raw, brown</tspan><tspan role="cell" x="330" y="630" font-weight="bold">Rice, parboiled, milled</tspan><tspan role="cell" x="330" y="670" font-weight="bold">Rice, raw, milled</tspan><tspan role="cell" x="330" y="710" font-weight="bold">Samai</tspan><tspan role="cell" x="330" y="750" font-weight="bold">Varagu</tspan><tspan role="cell" x="330" y="790" font-weight="bold">Cabbage, Chinese</tspan><tspan role="cell" x="330" y="830" font-weight="bold">Wheat flour, refined</tspan><tspan role="cell" x="330" y="870" font-weight="bold">Wheat flour, atta</tspan></text><text role="column"><tspan role="columnheader" x="730" y="70" font-weight="bold" fill="crimson">Protein</tspan><tspan role="cell" x="730" y="110">14.59g</tspan><tspan role="cell" x="730" y="150">13.27g</tspan><tspan role="cell" x="730" y="190">10.96g</tspan><tspan role="cell" x="730" y="230">10.94g</tspan><tspan role="cell" x="730" y="270">9.97g</tspan><tspan role="cell" x="730" y="310">8.8g</tspan><tspan role="cell" x="730" y="350">3.57g</tspan><tspan role="cell" x="730" y="390">4.16g</tspan><tspan role="cell" x="730" y="430">13.11g</tspan><tspan role="cell" x="730" y="470">7.16g</tspan><tspan role="cell" x="730" y="510">7.44g</tspan><tspan role="cell" x="730" y="550">7.47g</tspan><tspan role="cell" x="730" y="590">9.16g</tspan><tspan role="cell" x="730" y="630">7.81g</tspan><tspan role="cell" x="730" y="670">7.94g</tspan><tspan role="cell" x="730" y="710">10.13g</tspan><tspan role="cell" x="730" y="750">8.92g</tspan><tspan role="cell" x="730" y="790">1.58g</tspan><tspan role="cell" x="730" y="830">10.36g</tspan><tspan role="cell" x="730" y="870">10.57g</tspan></text></g></svg>