<svg xmlns="http://www.w3.org/2000/svg" xmlns:ct="http://gionkunz.github.com/chartist-js/ct" width="1200" height="792" class="ct-chart-line"><g class="ct-grids" transform="translate(0, 72)"><line x1="60" x2="60" y1="15" y2="565" class="ct-grid ct-horizontal" style="stroke: rgba(0,0,0,.2); stroke-width: 1px; stroke-dasharray: 2px"></line><line x1="112" x2="112" y1="15" y2="565" class="ct-grid ct-horizontal" style="stroke: rgba(0,0,0,.2); stroke-width: 1px; stroke-dasharray: 2px"></line><line x1="164" x2="164" y1="15" y2="565" class="ct-grid ct-horizontal" style="stroke: rgba(0,0,0,.2); stroke-width: 1px; stroke-dasharray: 2px"></line><line x1="216" x2="216" y1="15" y2="565" class="ct-grid ct-horizontal" style="stroke: rgba(0,0,0,.2); stroke-width: 1px; stroke-dasharray: 2px"></line><line x1="268" x2="268" y1="15" y2="565" class="ct-grid ct-horizontal" style="stroke: rgba(0,0,0,.2); stroke-width: 1px; stroke-dasharray: 2px"></line><line x1="320" x2="320" y1="15" y2="565" class="ct-grid ct-horizontal" style="stroke: rgba(0,0,0,.2); stroke-width: 1px; stroke-dasharray: 2px"></line><line x1="372" x2="372" y1="15" y2="565" class="ct-grid ct-horizontal" style="stroke: rgba(0,0,0,.2); stroke-width: 1px; stroke-dasharray: 2px"></line><line x1="424" x2="424" y1="15" y2="565" class="ct-grid ct-horizontal" style="stroke: rgba(0,0,0,.2); stroke-width: 1px; stroke-dasharray: 2px"></line><line x1="476" x2="476" y1="15" y2="565" class="ct-grid ct-horizontal" style="stroke: rgba(0,0,0,.2); stroke-width: 1px; stroke-dasharray: 2px"></line><line x1="528" x2="528" y1="15" y2="565" class="ct-grid ct-horizontal" style="stroke: rgba(0,0,0,.2); stroke-width: 1px; stroke-dasharray: 2px"></line><line x1="580" x2="580" y1="15" y2="565" class="ct-grid ct-horizontal" style="stroke: rgba(0,0,0,.2); stroke-width: 1px; stroke-dasharray: 2px"></line><line x1="632" x2="632" y1="15" y2="565" class="ct-grid ct-horizontal" style="stroke: rgba(0,0,0,.2); stroke-width: 1px; stroke-dasharray: 2px"></line><line x1="684" x2="684" y1="15" y2="565" class="ct-grid ct-horizontal" style="stroke: rgba(0,0,0,.2); stroke-width: 1px; stroke-dasharray: 2px"></line><line x1="736" x2="736" y1="15" y2="565" class="ct-grid ct-horizontal" style="stroke: rgba(0,0,0,.2); stroke-width: 1px; stroke-dasharray: 2px"></line><line x1="788" x2="788" y1="15" y2="565" class="ct-grid ct-horizontal" style="stroke: rgba(0,0,0,.2); stroke-width: 1px; stroke-dasharray: 2px"></line><line x1="840" x2="840" y1="15" y2="565" class="ct-grid ct-horizontal" style="stroke: rgba(0,0,0,.2); stroke-width: 1px; stroke-dasharray: 2px"></line><line x1="892" x2="892" y1="15" y2="565" class="ct-grid ct-horizontal" style="stroke: rgba(0,0,0,.2); stroke-width: 1px; stroke-dasharray: 2px"></line><line x1="944" x2="944" y1="15" y2="565" class="ct-grid ct-horizontal" style="stroke: rgba(0,0,0,.2); stroke-width: 1px; stroke-dasharray: 2px"></line><line x1="996" x2="996" y1="15" y2="565" class="ct-grid ct-horizontal" style="stroke: rgba(0,0,0,.2); stroke-width: 1px; stroke-dasharray: 2px"></line><line x1="1048" x2="1048" y1="15" y2="565" class="ct-grid ct-horizontal" style="stroke: rgba(0,0,0,.2); stroke-width: 1px; stroke-dasharray: 2px"></line><line y1="565" y2="565" x1="60" x2="1100" class="ct-grid ct-vertical" style="stroke: rgba(0,0,0,.2); stroke-width: 1px; stroke-dasharray: 2px"></line><line y1="515" y2="515" x1="60" x2="1100" class="ct-grid ct-vertical" style="stroke: rgba(0,0,0,.2); stroke-width: 1px; stroke-dasharray: 2px"></line><line y1="465" y2="465" x1="60" x2="1100" class="ct-grid ct-vertical" style="stroke: rgba(0,0,0,.2); stroke-width: 1px; stroke-dasharray: 2px"></line><line y1="415" y2="415" x1="60" x2="1100" class="ct-grid ct-vertical" style="stroke: rgba(0,0,0,.2); stroke-width: 1px; stroke-dasharray: 2px"></line><line y1="365" y2="365" x1="60" x2="1100" class="ct-grid ct-vertical" style="stroke: rgba(0,0,0,.2); stroke-width: 1px; stroke-dasharray: 2px"></line><line y1="315" y2="315" x1="60" x2="1100" class="ct-grid ct-vertical" style="stroke: rgba(0,0,0,.2); stroke-width: 1px; stroke-dasharray: 2px"></line><line y1="265" y2="265" x1="60" x2="1100" class="ct-grid ct-vertical" style="stroke: rgba(0,0,0,.2); stroke-width: 1px; stroke-dasharray: 2px"></line><line y1="215" y2="215" x1="60" x2="1100" class="ct-grid ct-vertical" style="stroke: rgba(0,0,0,.2); stroke-width: 1px; stroke-dasharray: 2px"></line><line y1="165" y2="165" x1="60" x2="1100" class="ct-grid ct-vertical" style="stroke: rgba(0,0,0,.2); stroke-width: 1px; stroke-dasharray: 2px"></line><line y1="115" y2="115" x1="60" x2="1100" class="ct-grid ct-vertical" style="stroke: rgba(0,0,0,.2); stroke-width: 1px; stroke-dasharray: 2px"></line><line y1="65" y2="65" x1="60" x2="1100" class="ct-grid ct-vertical" style="stroke: rgba(0,0,0,.2); stroke-width: 1px; stroke-dasharray: 2px"></line><line y1="15" y2="15" x1="60" x2="1100" class="ct-grid ct-vertical" style="stroke: rgba(0,0,0,.2); stroke-width: 1px; stroke-dasharray: 2px"></line></g><g transform="translate(0, 72)"><g class="ct-series ct-series-a"><path d="M60,31.4C77.333,49,94.667,61.8,112,84.2C129.333,106.6,146.667,176.071,164,176.6C181.333,177.129,198.667,176.877,216,177.4C233.333,177.923,250.667,202.058,268,216.2C285.333,230.342,302.667,237.504,320,263C337.333,288.496,354.667,472.2,372,472.2C389.333,472.2,406.667,463.36,424,448.6C441.333,433.84,458.667,90.6,476,90.6C493.333,90.6,510.667,328.6,528,328.6C545.333,328.6,562.667,318.123,580,317.4C597.333,316.677,614.667,316.986,632,316.2C649.333,315.414,666.667,248.6,684,248.6C701.333,248.6,718.667,302.6,736,302.6C753.333,302.6,770.667,300.672,788,297.4C805.333,294.128,822.667,209.8,840,209.8C857.333,209.8,874.667,230.5,892,258.2C909.333,285.9,926.667,551.8,944,551.8C961.333,551.8,978.667,206.069,996,200.6C1013.333,195.131,1030.667,195,1048,192.2" class="ct-line" style="stroke: rgb(215,2,6); stroke-width: 4px; fill: none"></path><line x1="60" y1="31.399999999999977" x2="60.01" y2="31.399999999999977" class="ct-point" ct:value="14.59" style="stroke: rgb(215,2,6); stroke-width: 10px; stroke-linecap: round"></line><line x1="112" y1="84.19999999999999" x2="112.01" y2="84.19999999999999" class="ct-point" ct:value="13.27" style="stroke: rgb(215,2,6); stroke-width: 10px; stroke-linecap: round"></line><line x1="164" y1="176.5999999999999" x2="164.01" y2="176.5999999999999" class="ct-point" ct:value="10.96" style="stroke: rgb(215,2,6); stroke-width: 10px; stroke-linecap: round"></line><line x1="216" y1="177.39999999999998" x2="216.01" y2="177.39999999999998" class="ct-point" ct:value="10.94" style="stroke: rgb(215,2,6); stroke-width: 10px; stroke-linecap: round"></line><line x1="268" y1="216.2" x2="268.01" y2="216.2" class="ct-point" ct:value="9.97" style="stroke: rgb(215,2,6); stroke-width: 10px; stroke-linecap: round"></line><line x1="320" y1="263" x2="320.01" y2="263" class="ct-point" ct:value="8.8" style="stroke: rgb(215,2,6); stroke-width: 10px; stroke-linecap: round"></line><line x1="372" y1="472.2" x2="372.01" y2="472.2" class="ct-point" ct:value="3.57" style="stroke: rgb(215,2,6); stroke-width: 10px; stroke-linecap: round"></line><line x1="424" y1="448.6" x2="424.01" y2="448.6" class="ct-point" ct:value="4.16" style="stroke: rgb(215,2,6); stroke-width: 10px; stroke-linecap: round"></line><line x1="476" y1="90.60000000000002" x2="476.01" y2="90.60000000000002" class="ct-point" ct:value="13.11" style="stroke: rgb(215,2,6); stroke-width: 10px; stroke-linecap: round"></line><line x1="528" y1="328.6" x2="528.01" y2="328.6" class="ct-point" ct:value="7.16" style="stroke: rgb(215,2,6); stroke-width: 10px; stroke-linecap: round"></line><line x1="580" y1="317.4" x2="580.01" y2="317.4" class="ct-point" ct:value="7.44" style="stroke: rgb(215,2,6); stroke-width: 10px; stroke-linecap: round"></line><line x1="632" y1="316.2" x2="632.01" y2="316.2" class="ct-point" ct:value="7.47" style="stroke: rgb(215,2,6); stroke-width: 10px; stroke-linecap: round"></line><line x1="684" y1="248.60000000000002" x2="684.01" y2="248.60000000000002" class="ct-point" ct:value="9.16" style="stroke: rgb(215,2,6); stroke-width: 10px; stroke-linecap: round"></line><line x1="736" y1="302.6" x2="736.01" y2="302.6" class="ct-point" ct:value="7.81" style="stroke: rgb(215,2,6); stroke-width: 10px; stroke-linecap: round"></line><line x1="788" y1="297.4" x2="788.01" y2="297.4" class="ct-point" ct:value="7.94" style="stroke: rgb(215,2,6); stroke-width: 10px; stroke-linecap: round"></line><line x1="840" y1="209.8" x2="840.01" y2="209.8" class="ct-point" ct:value="10.13" style="stroke: rgb(215,2,6); stroke-width: 10px; stroke-linecap: round"></line><line x1="892" y1="258.2" x2="892.01" y2="258.2" class="ct-point" ct:value="8.92" style="stroke: rgb(215,2,6); stroke-width: 10px; stroke-linecap: round"></line><line x1="944" y1="551.8" x2="944.01" y2="551.8" class="ct-point" ct:value="1.58" style="stroke: rgb(215,2,6); stroke-width: 10px; stroke-linecap: round"></line><line x1="996" y1="200.60000000000002" x2="996.01" y2="200.60000000000002" class="ct-point" ct:value="10.36" style="stroke: rgb(215,2,6); stroke-width: 10px; stroke-linecap: round"></line><line x1="1048" y1="192.2" x2="1048.01" y2="192.2" class="ct-point" ct:value="10.57" style="stroke: rgb(215,2,6); stroke-width: 10px; stroke-linecap: round"></line></g><g class="ct-series ct-series-b"><path d="M60,31.4C77.333,49,94.667,61.8,112,84.2C129.333,106.6,146.667,176.071,164,176.6C181.333,177.129,198.667,176.877,216,177.4C233.333,177.923,250.667,202.058,268,216.2C285.333,230.342,302.667,237.504,320,263C337.333,288.496,354.667,472.2,372,472.2C389.333,472.2,406.667,463.36,424,448.6C441.333,433.84,458.667,90.6,476,90.6C493.333,90.6,510.667,328.6,528,328.6C545.333,328.6,562.667,318.123,580,317.4C597.333,316.677,614.667,316.986,632,316.2C649.333,315.414,666.667,248.6,684,248.6C701.333,248.6,718.667,302.6,736,302.6C753.333,302.6,770.667,300.672,788,297.4C805.333,294.128,822.667,209.8,840,209.8C857.333,209.8,874.667,230.5,892,258.2C909.333,285.9,926.667,551.8,944,551.8C961.333,551.8,978.667,206.069,996,200.6C1013.333,195.131,1030.667,195,1048,192.2" class="ct-line" style="stroke: rgb(240,91,79); stroke-width: 4px; fill: none"></path><line x1="60" y1="31.399999999999977" x2="60.01" y2="31.399999999999977" class="ct-point" ct:value="14.59" style="stroke: rgb(240,91,79); stroke-width: 10px; stroke-linecap: round"></line><line x1="112" y1="84.19999999999999" x2="112.01" y2="84.19999999999999" class="ct-point" ct:value="13.27" style="stroke: rgb(240,91,79); stroke-width: 10px; stroke-linecap: round"></line><line x1="164" y1="176.5999999999999" x2="164.01" y2="176.5999999999999" class="ct-point" ct:value="10.96" style="stroke: rgb(240,91,79); stroke-width: 10px; stroke-linecap: round"></line><line x1="216" y1="177.39999999999998" x2="216.01" y2="177.39999999999998" class="ct-point" ct:value="10.94" style="stroke: rgb(240,91,79); stroke-width: 10px; stroke-linecap: round"></line><line x1="268" y1="216.2" x2="268.01" y2="216.2" class="ct-point" ct:value="9.97" style="stroke: rgb(240,91,79); stroke-width: 10px; stroke-linecap: round"></line><line x1="320" y1="263" x2="320.01" y2="263" class="ct-point" ct:value="8.8" style="stroke: rgb(240,91,79); stroke-width: 10px; stroke-linecap: round"></line><line x1="372" y1="472.2" x2="372.01" y2="472.2" class="ct-point" ct:value="3.57" style="stroke: rgb(240,91,79); stroke-width: 10px; stroke-linecap: round"></line><line x1="424" y1="448.6" x2="424.01" y2="448.6" class="ct-point" ct:value="4.16" style="stroke: rgb(240,91,79); stroke-width: 10px; stroke-linecap: round"></line><line x1="476" y1="90.60000000000002" x2="476.01" y2="90.60000000000002" class="ct-point" ct:value="13.11" style="stroke: rgb(240,91,79); stroke-width: 10px; stroke-linecap: round"></line><line x1="528" y1="328.6" x2="528.01" y2="328.6" class="ct-point" ct:value="7.16" style="stroke: rgb(240,91,79); stroke-width: 10px; stroke-linecap: round"></line><line x1="580" y1="317.4" x2="580.01" y2="317.4" class="ct-point" ct:value="7.44" style="stroke: rgb(240,91,79); stroke-width: 10px; stroke-linecap: round"></line><line x1="632" y1="316.2" x2="632.01" y2="316.2" class="ct-point" ct:value="7.47" style="stroke: rgb(240,91,79); stroke-width: 10px; stroke-linecap: round"></line><line x1="684" y1="248.60000000000002" x2="684.01" y2="248.60000000000002" class="ct-point" ct:value="9.16" style="stroke: rgb(240,91,79); stroke-width: 10px; stroke-linecap: round"></line><line x1="736" y1="302.6" x2="736.01" y2="302.6" class="ct-point" ct:value="7.81" style="stroke: rgb(240,91,79); stroke-width: 10px; stroke-linecap: round"></line><line x1="788" y1="297.4" x2="788.01" y2="297.4" class="ct-point" ct:value="7.94" style="stroke: rgb(240,91,79); stroke-width: 10px; stroke-linecap: round"></line><line x1="840" y1="209.8" x2="840.01" y2="209.8" class="ct-point" ct:value="10.13" style="stroke: rgb(240,91,79); stroke-width: 10px; stroke-linecap: round"></line><line x1="892" y1="258.2" x2="892.01" y2="258.2" class="ct-point" ct:value="8.92" style="stroke: rgb(240,91,79); stroke-width: 10px; stroke-linecap: round"></line><line x1="944" y1="551.8" x2="944.01" y2="551.8" class="ct-point" ct:value="1.58" style="stroke: rgb(240,91,79); stroke-width: 10px; stroke-linecap: round"></line><line x1="996" y1="200.60000000000002" x2="996.01" y2="200.60000000000002" class="ct-point" ct:value="10.36" style="stroke: rgb(240,91,79); stroke-width: 10px; stroke-linecap: round"></line><line x1="1048" y1="192.2" x2="1048.01" y2="192.2" class="ct-point" ct:value="10.57" style="stroke: rgb(240,91,79); stroke-width: 10px; stroke-linecap: round"></line></g></g><g class="ct-labels" transform="translate(0, 72)"><text x="60" y="585" width="52" height="20" class="ct-label ct-horizontal ct-end" transform="rotate(20, 60, 585) translate(-10, 0)" style="text-anchor: start; text-align: left; display: block; fill: crimson; color: rgba(0,0,0,.4); font-size: 14px; line-height: 1; font-family: Courier; font-weight: bold">Amaranth seed, black</text><text x="112" y="585" width="52" height="20" class="ct-label ct-horizontal ct-end" transform="rotate(20, 112, 585) translate(-10, 0)" style="text-anchor: start; text-align: left; display: block; fill: crimson; color: rgba(0,0,0,.4); font-size: 14px; line-height: 1; font-family: Courier; font-weight: bold">Amaranth seed, pale brown</text><text x="164" y="585" width="52" height="20" class="ct-label ct-horizontal ct-end" transform="rotate(20, 164, 585) translate(-10, 0)" style="text-anchor: start; text-align: left; display: block; fill: crimson; color: rgba(0,0,0,.4); font-size: 14px; line-height: 1; font-family: Courier; font-weight: bold">Bajra</text><text x="216" y="585" width="52" height="20" class="ct-label ct-horizontal ct-end" transform="rotate(20, 216, 585) translate(-10, 0)" style="text-anchor: start; text-align: left; display: block; fill: crimson; color: rgba(0,0,0,.4); font-size: 14px; line-height: 1; font-family: Courier; font-weight: bold">Barley</text><text x="268" y="585" width="52" height="20" class="ct-label ct-horizontal ct-end" transform="rotate(20, 268, 585) translate(-10, 0)" style="text-anchor: start; text-align: left; display: block; fill: crimson; color: rgba(0,0,0,.4); font-size: 14px; line-height: 1; font-family: Courier; font-weight: bold">Jowar</text><text x="320" y="585" width="52" height="20" class="ct-label ct-horizontal ct-end" transform="rotate(20, 320, 585) translate(-10, 0)" style="text-anchor: start; text-align: left; display: block; fill: crimson; color: rgba(0,0,0,.4); font-size: 14px; line-height: 1; font-family: Courier; font-weight: bold">Maize, dry</text><text x="372" y="585" width="52" height="20" class="ct-label ct-horizontal ct-end" transform="rotate(20, 372, 585) translate(-10, 0)" style="text-anchor: start; text-align: left; display: block; fill: crimson; color: rgba(0,0,0,.4); font-size: 14px; line-height: 1; font-family: Courier; font-weight: bold">Maize, tender, local</text><text x="424" y="585" width="52" height="20" class="ct-label ct-horizontal ct-end" transform="rotate(20, 424, 585) translate(-10, 0)" style="text-anchor: start; text-align: left; display: block; fill: crimson; color: rgba(0,0,0,.4); font-size: 14px; line-height: 1; font-family: Courier; font-weight: bold">Maize, tender, sweet</text><text x="476" y="585" width="52" height="20" class="ct-label ct-horizontal ct-end" transform="rotate(20, 476, 585) translate(-10, 0)" style="text-anchor: start; text-align: left; display: block; fill: crimson; color: rgba(0,0,0,.4); font-size: 14px; line-height: 1; font-family: Courier; font-weight: bold">Quinoa</text><text x="528" y="585" width="52" height="20" class="ct-label ct-horizontal ct-end" transform="rotate(20, 528, 585) translate(-10, 0)" style="text-anchor: start; text-align: left; display: block; fill: crimson; color: rgba(0,0,0,.4); font-size: 14px; line-height: 1; font-family: Courier; font-weight: bold">Ragi</text><text x="580" y="585" width="52" height="20" class="ct-label ct-horizontal ct-end" transform="rotate(20, 580, 585) translate(-10, 0)" style="text-anchor: start; text-align: left; display: block; fill: crimson; color: rgba(0,0,0,.4); font-size: 14px; line-height: 1; font-family: Courier; font-weight: bold">Rice flakes</text><text x="632" y="585" width="52" height="20" class="ct-label ct-horizontal ct-end" transform="rotate(20, 632, 585) translate(-10, 0)" style="text-anchor: start; text-align: left; display: block; fill: crimson; color: rgba(0,0,0,.4); font-size: 14px; line-height: 1; font-family: Courier; font-weight: bold">Rice puffed</text><text x="684" y="585" width="52" height="20" class="ct-label ct-horizontal ct-end" transform="rotate(20, 684, 585) translate(-10, 0)" style="text-anchor: start; text-align: left; display: block; fill: crimson; color: rgba(0,0,0,.4); font-size: 14px; line-height: 1; font-family: Courier; font-weight: bold">Rice, raw, brown</text><text x="736" y="585" width="52" height="20" class="ct-label ct-horizontal ct-end" transform="rotate(20, 736, 585) translate(-10, 0)" style="text-anchor: start; text-align: left; display: block; fill: crimson; color: rgba(0,0,0,.4); font-size: 14px; line-height: 1; font-family: Courier; font-weight: bold">Rice, parboiled, milled</text><text x="788" y="585" width="52" height="20" class="ct-label ct-horizontal ct-end" transform="rotate(20, 788, 585) translate(-10, 0)" style="text-anchor: start; text-align: left; display: block; fill: crimson; color: rgba(0,0,0,.4); font-size: 14px; line-height: 1; font-family: Courier; font-weight: bold">Rice, raw, milled</text><text x="840" y="585" width="52" height="20" class="ct-label ct-horizontal ct-end" transform="rotate(20, 840, 585) translate(-10, 0)" style="text-anchor: start; text-align: left; display: block; fill: crimson; color: rgba(0,0,0,.4); font-size: 14px; line-height: 1; font-family: Courier; font-weight: bold">Samai</text><text x="892" y="585" width="52" height="20" class="ct-label ct-horizontal ct-end" transform="rotate(20, 892, 585) translate(-10, 0)" style="text-anchor: start; text-align: left; display: block; fill: crimson; color: rgba(0,0,0,.4); font-size: 14px; line-height: 1; font-family: Courier; font-weight: bold">Varagu</text><text x="944" y="585" width="52" height="20" class="ct-label ct-horizontal ct-end" transform="rotate(20, 944, 585) translate(-10, 0)" style="text-anchor: start; text-align: left; display: block; fill: crimson; color: rgba(0,0,0,.4); font-size: 14px; line-height: 1; font-family: Courier; font-weight: bold">Cabbage, Chinese</text><text x="996" y="585" width="52" height="20" class="ct-label ct-horizontal ct-end" transform="rotate(20, 996, 585) translate(-10, 0)" style="text-anchor: start; text-align: left; display: block; fill: crimson; color: rgba(0,0,0,.4); font-size: 14px; line-height: 1; font-family: Courier; font-weight: bold">Wheat flour, refined</text><text x="1048" y="585" width="52" height="20" class="ct-label ct-horizontal ct-end" transform="rotate(20, 1048, 585) translate(-10, 0)" style="text-anchor: start; text-align: left; display: block; fill: crimson; color: rgba(0,0,0,.4); font-size: 14px; line-height: 1; font-family: Courier; font-weight: bold">Wheat flour, atta</text><text y="565" x="50" height="50" width="30" class="ct-label ct-vertical ct-start" style="text-anchor: end; text-align: right; display: block; fill: rgba(0,0,0,.4); color: rgba(0,0,0,.4); font-size: 14px; line-height: 1; font-family: Courier; font-weight: bold">1.25</text><text y="515" x="50" height="50" width="30" class="ct-label ct-vertical ct-start" style="text-anchor: end; text-align: right; display: block; fill: rgba(0,0,0,.4); color: rgba(0,0,0,.4); font-size: 14px; line-height: 1; font-family: Courier; font-weight: bold">2.5</text><text y="465" x="50" height="50" width="30" class="ct-label ct-vertical ct-start" style="text-anchor: end; text-align: right; display: block; fill: rgba(0,0,0,.4); color: rgba(0,0,0,.4); font-size: 14px; line-height: 1; font-family: Courier; font-weight: bold">3.75</text><text y="415" x="50" height="50" width="30" class="ct-label ct-vertical ct-start" style="text-anchor: end; text-align: right; display: block; fill: rgba(0,0,0,.4); color: rgba(0,0,0,.4); font-size: 14px; line-height: 1; font-family: Courier; font-weight: bold">5</text><text y="365" x="50" height="50" width="30" class="ct-label ct-vertical ct-start" style="text-anchor: end; text-align: right; display: block; fill: rgba(0,0,0,.4); color: rgba(0,0,0,.4); font-size: 14px; line-height: 1; font-family: Courier; font-weight: bold">6.25</text><text y="315" x="50" height="50" width="30" class="ct-label ct-vertical ct-start" style="text-anchor: end; text-align: right; display: block; fill: rgba(0,0,0,.4); color: rgba(0,0,0,.4); font-size: 14px; line-height: 1; font-family: Courier; font-weight: bold">7.5</text><text y="265" x="50" height="50" width="30" class="ct-label ct-vertical ct-start" style="text-anchor: end; text-align: right; display: block; fill: rgba(0,0,0,.4); color: rgba(0,0,0,.4); font-size: 14px; line-height: 1; font-family: Courier; font-weight: bold">8.75</text><text y="215" x="50" height="50" width="30" class="ct-label ct-vertical ct-start" style="text-anchor: end; text-align: right; display: block; fill: rgba(0,0,0,.4); color: rgba(0,0,0,.4); font-size: 14px; line-height: 1; font-family: Courier; font-weight: bold">10</text><text y="165" x="50" height="50" width="30" class="ct-label ct-vertical ct-start" style="text-anchor: end; text-align: right; display: block; fill: rgba(0,0,0,.4); color: rgba(0,0,0,.4); font-size: 14px; line-height: 1; font-family: Courier; font-weight: bold">11.25</text><text y="115" x="50" height="50" width="30" class="ct-label ct-vertical ct-start" style="text-anchor: end; text-align: right; display: block; fill: rgba(0,0,0,.4); color: rgba(0,0,0,.4); font-size: 14px; line-height: 1; font-family: Courier; font-weight: bold">12.5</text><text y="65" x="50" height="50" width="30" class="ct-label ct-vertical ct-start" style="text-anchor: end; text-align: right; display: block; fill: rgba(0,0,0,.4); color: rgba(0,0,0,.4); font-size: 14px; line-height: 1; font-family: Courier; font-weight: bold">13.75</text><text y="15" x="50" height="30" width="30" class="ct-label ct-vertical ct-start" style="text-anchor: end; text-align: right; display: block; fill: rgba(0,0,0,.4); color: rgba(0,0,0,.4); font-size: 14px; line-height: 1; font-family: Courier; font-weight: bold">15</text></g><text x="600" y="28.799999999999997" height="48" font-size="18px" font-family="Verdana" font-weight="bold" fill="crimson" text-anchor="middle" role="caption">Protein (g)</text><text x="600" y="62.4" height="24" font-size="12px" font-family="Verdana" font-weight="bold" fill="indianred" text-anchor="middle">show food with high proteins</text></svg>